<?xml version="1.0" encoding="utf-8"?>
<!-- Generator: Adobe Illustrator 15.1.0, SVG Export Plug-In . SVG Version: 6.00 Build 0)  -->
<!DOCTYPE svg PUBLIC "-//W3C//DTD SVG 1.1//EN" "http://www.w3.org/Graphics/SVG/1.1/DTD/svg11.dtd">
<svg version="1.1" id="Layer_1" xmlns="http://www.w3.org/2000/svg" xmlns:xlink="http://www.w3.org/1999/xlink" x="0px" y="0px"
	 width="311.157px" height="223px" viewBox="0 0 311.157 223" enable-background="new 0 0 311.157 223" xml:space="preserve">
<g>
	<polygon opacity="0.25" fill="#FFFFFF" points="131.665,121.943 158.983,121.943 144.513,78.789 	"/>
	<path opacity="0.25" fill="#FFFFFF" d="M286.606,160.553L246.01,69.495l21.611-5.433V0H43.542v64.025l21.324,5.424l-41.144,91.152
		L0,166.396V223h311.157v-56.684L286.606,160.553z M300.217,212.061H155.579v-37.074l16.186-4.967l-5.228-15.832h-43.692
		l-5.618,15.803l17.548,4.996v37.074H10.941v-37.074l20.56-5.021L80.207,62.06l-25.723-6.541V10.94h202.197v44.591l-25.966,6.529
		l48.107,107.904l21.395,5.021V212.061z"/>
	<path opacity="0.25" fill="#CF202C" d="M230.715,62.06l25.966-6.529V10.94H54.484v44.579l25.723,6.541L31.501,169.964l-20.56,5.021
		v37.076h123.833v-37.076l-17.548-4.995l5.618-15.802h43.694l5.227,15.832l-16.186,4.965v37.076h144.639v-37.076l-21.396-5.021
		L230.715,62.06z M131.665,121.943l12.848-43.155l14.471,43.155H131.665z M154.593,66.445l5.436-16.029L146.875,39.81h16.387
		l5.373-15.352l5.33,15.352h17.099l-13.612,10.764l5.193,16.415l-14.01-10.646L154.593,66.445z M169.629,84.289h16.429l5.358-15.331
		l5.342,15.331h17.08l-13.602,10.789l5.186,16.397l-14.006-10.646l-14.021,10.106l5.435-16.045L169.629,84.289z M190.549,129.385
		h16.4l5.387-15.334l5.322,15.334h17.09l-13.594,10.78l5.203,16.399l-14.021-10.637l-14.032,10.145l5.454-16.076L190.549,129.385z
		 M247.815,200.477l-14.031-10.647l-13.994,10.138l5.428-16.06l-13.213-10.61h16.427l5.354-15.324l5.354,15.324h17.072
		l-13.58,10.771L247.815,200.477z"/>
	<polygon opacity="0.25" fill="#FFFFFF" points="177.452,50.574 191.064,39.81 173.967,39.81 168.637,24.458 163.263,39.81 
		146.875,39.81 160.029,50.416 154.593,66.445 168.637,56.342 182.646,66.988 	"/>
	<polygon opacity="0.25" fill="#FFFFFF" points="191.417,100.829 205.422,111.475 200.237,95.078 213.838,84.289 196.758,84.289 
		191.417,68.958 186.058,84.289 169.629,84.289 182.831,94.89 177.396,110.936 	"/>
	<polygon opacity="0.25" fill="#FFFFFF" points="212.336,145.93 226.358,156.564 221.155,140.165 234.749,129.385 217.659,129.385 
		212.336,114.051 206.95,129.385 190.549,129.385 203.758,139.996 198.304,156.072 	"/>
	<polygon opacity="0.25" fill="#FFFFFF" points="239.139,173.296 233.784,157.973 228.431,173.296 212.004,173.296 225.217,183.906 
		219.79,199.966 233.784,189.828 247.815,200.477 242.631,184.068 256.211,173.296 	"/>
</g>
</svg>
