<?xml version="1.0" encoding="utf-8"?>
<!-- Generator: Adobe Illustrator 14.0.0, SVG Export Plug-In . SVG Version: 6.00 Build 43363)  -->
<!DOCTYPE svg PUBLIC "-//W3C//DTD SVG 1.1//EN" "http://www.w3.org/Graphics/SVG/1.1/DTD/svg11.dtd">
<svg version="1.1" id="Layer_1" xmlns="http://www.w3.org/2000/svg" xmlns:xlink="http://www.w3.org/1999/xlink" x="0px" y="0px"
	 width="295.687px" height="223px" viewBox="0 0 295.687 223" enable-background="new 0 0 295.687 223" xml:space="preserve">
<path fill="#FFFFFF" d="M166.685,0v49.439L119.304,0H0v59.859l20.935,4.402v97.068l-20.127,4.996v56.645h136.811v-48.969L186.06,223
	h91.604V63.971l18.023-4.256V0H166.685z M284.744,51.054l-18.022,4.256v156.733h-76.095l-81.145-81.985v39.871l17.195,5.044v37.055
	H11.75v-37.144l20.127-4.998V55.379l-20.936-4.402V10.941h103.693l77.595,80.969V55.458l-14.603-4.425V10.941h107.117V51.054z"/>
<path fill="#003B66" d="M177.627,51.033l14.603,4.425V91.91l-77.595-80.969H10.941v40.036l20.936,4.402v114.506l-20.127,4.998
	v37.144h114.927v-37.055l-17.195-5.044v-39.871l81.145,81.985h76.095V55.31l18.022-4.256V10.941H177.627V51.033z M98.266,53.779
	l5.371,16.973L89.15,59.786L74.677,70.213l5.617-16.599L66.667,42.68h16.931l5.552-15.844l5.52,15.844h17.674L98.266,53.779z
	 M132.239,100.866l-14.492,10.409l5.608-16.544l-13.604-10.954h16.926l5.562-15.874l5.496,15.874h17.665l-14.05,11.095l5.329,16.975
	L132.239,100.866z M218.36,150.082l5.547,15.891h17.646l-14.06,11.093l5.366,16.979l-14.5-10.995l-14.469,10.409l5.645-16.547
	l-13.65-10.939h16.936L218.36,150.082z M184.438,136.009l5.365,16.938l-14.481-10.965l-14.473,10.395l5.603-16.559l-13.631-10.965
	h16.944l5.557-15.848l5.538,15.848h17.618L184.438,136.009z"/>
<polygon fill="#FFFFFF" points="94.67,42.68 89.15,26.836 83.598,42.68 66.667,42.68 80.294,53.614 74.677,70.213 89.15,59.786 
	103.637,70.752 98.266,53.779 112.344,42.68 "/>
<polygon fill="#FFFFFF" points="155.399,83.777 137.735,83.777 132.239,67.903 126.677,83.777 109.751,83.777 123.355,94.73 
	117.747,111.275 132.239,100.866 146.679,111.847 141.35,94.872 "/>
<polygon fill="#FFFFFF" points="175.322,109.005 169.766,124.854 152.821,124.854 166.452,135.818 160.85,152.377 175.322,141.982 
	189.804,152.947 184.438,136.009 198.479,124.854 180.86,124.854 "/>
<polygon fill="#FFFFFF" points="209.536,176.912 203.892,193.459 218.36,183.05 232.86,194.045 227.494,177.065 241.554,165.973 
	223.907,165.973 218.36,150.082 212.821,165.973 195.886,165.973 "/>
</svg>
